<svg xmlns="http://www.w3.org/2000/svg" style="display: none;">
    <symbol id="home" viewBox="0 0 16 18">
        <path
            d="M15.7141 7.03917L8.21412 0.164153C7.96975 -0.0594061 7.59393 -0.0539569 7.35641 0.176457L0.273061 7.05144C0.151807 7.16914 0.083252 7.33104 0.083252 7.49996V17.375C0.083252 17.7202 0.363025 18 0.70826 18H5.91659C6.26179 18 6.5416 17.7202 6.5416 17.375V12.7916H9.45826V17.375C9.45826 17.7202 9.73804 18 10.0833 18H15.2916C15.6368 18 15.9166 17.7204 15.9166 17.375V7.5C15.9166 7.32478 15.8433 7.15772 15.7141 7.03917ZM14.6666 16.75H10.7083V12.1667C10.7083 11.8215 10.4285 11.5417 10.0833 11.5417H5.91662C5.57142 11.5417 5.29161 11.8215 5.29161 12.1667V16.75H1.33327V7.76437L7.80392 1.48416L14.6666 7.77499V16.75H14.6666Z"
            fill="currentColor" />
    </symbol>

    <symbol id="blog" viewBox="0 0 16 16">
        <path
            d="M2.18555 2.58525C2.18555 2.22832 2.46509 1.93897 2.80994 1.93897C3.15479 1.93897 3.43433 2.22832 3.43433 2.58525C3.43433 2.94232 3.15479 3.23166 2.80994 3.23166C2.46509 3.23166 2.18555 2.94232 2.18555 2.58525ZM4.99548 3.23166C5.34033 3.23166 5.61987 2.94232 5.61987 2.58525C5.61987 2.22832 5.34033 1.93897 4.99548 1.93897C4.65063 1.93897 4.37097 2.22832 4.37097 2.58525C4.37097 2.94232 4.65063 3.23166 4.99548 3.23166ZM16 13.2472L13.3466 16L9.0332 11.6578C8.79187 11.4079 8.60754 11.0985 8.50037 10.763L8.4906 10.7325L7.82312 7.6466L10.7965 8.34645L10.8251 8.35631C11.1476 8.46686 11.4452 8.65652 11.686 8.90479L16 13.2472ZM14.2225 13.2611L10.806 9.82197C10.7822 9.79733 10.7571 9.77396 10.7307 9.7521L9.84814 10.665C9.86877 10.6916 9.89062 10.717 9.91382 10.7413L13.3334 14.1835L14.2225 13.2611ZM9.70996 14.2192L10.994 15.5118H1.87329C0.840332 15.5118 0 14.642 0 13.5728V1.93897C0 0.869796 0.840332 0 1.87329 0H14.1122C15.1451 0 15.9855 0.869796 15.9855 1.93897V11.3648L14.7366 10.1078V5.17064H1.2489V13.5728C1.2489 13.9292 1.52893 14.2192 1.87329 14.2192H9.70996ZM1.2489 1.93897V3.87795H14.7366V1.93897C14.7366 1.58254 14.4564 1.29269 14.1122 1.29269H1.87329C1.52893 1.29269 1.2489 1.58254 1.2489 1.93897Z"
            fill="currentColor" />
    </symbol>


    <symbol id="tag" width="18" height="18" viewBox="0 0 18 18" fill="none">
        <g clip-path="url(#clip0_29_7)">
            <path
                d="M17.8231 1.27556C17.8226 1.26097 17.8218 1.24617 17.8205 1.23161C17.7661 0.636629 17.2926 0.187824 16.7358 0.187824C16.7356 0.187824 16.7356 0.187824 16.7354 0.187824L9.60163 0.0111641C9.42029 0.00698055 9.24493 0.0767657 9.11686 0.205086L0.326637 8.99503C0.115945 9.20572 0 9.4818 0 9.77268C0 10.0638 0.115945 10.3399 0.326883 10.5505L7.43854 17.6622V17.6624C7.65654 17.8804 7.93656 17.9893 8.2164 17.9893C8.49579 17.9893 8.77518 17.8806 8.99251 17.6635L17.8048 8.89543C17.9338 8.76711 18.0044 8.59129 17.9998 8.40932L17.8231 1.27556ZM8.37496 16.7253L8.37429 16.7244C8.3745 16.7246 8.37475 16.7246 8.37496 16.7251V16.7253ZM8.2164 16.5663L1.42298 9.77289L9.85296 1.34271L16.5035 1.50748L16.668 8.15711L8.2164 16.5663Z"
                fill="currentColor" />
            <path
                d="M12.1472 3.30151C10.7467 3.30151 9.6073 4.44093 9.6073 5.84138C9.6073 7.24183 10.7467 8.38124 12.1472 8.38124C13.5476 8.38124 14.687 7.24183 14.687 5.84138C14.6871 4.44093 13.5476 3.30151 12.1472 3.30151ZM12.1472 7.05613C11.4775 7.05613 10.9324 6.51128 10.9324 5.84141C10.9324 5.17155 11.4775 4.62669 12.1472 4.62669C12.8168 4.62669 13.3619 5.17155 13.3619 5.84141C13.3619 6.51125 12.8168 7.05613 12.1472 7.05613Z"
                fill="currentColor" />
        </g>
        <defs>
            <clipPath id="clip0_29_7">
                <rect width="18" height="18" fill="white" />
            </clipPath>
        </defs>
    </symbol>


    <symbol id="user" viewBox="0 0 15 18" fill="none">
        <path
            d="M7.39108 8.81308C8.59743 8.81308 9.64177 8.38038 10.4931 7.52192C11.3444 6.66346 11.7787 5.61808 11.7787 4.40654C11.7787 3.195 11.3479 2.14615 10.4931 1.29115C9.63833 0.436154 8.59743 0 7.39108 0C6.18474 0 5.1404 0.432692 4.28906 1.29115C3.43428 2.14615 3 3.195 3 4.40654C3 5.61808 3.43084 6.66692 4.28562 7.52192C5.1404 8.38038 6.18474 8.81308 7.39108 8.81308ZM7.39108 1.31538C8.24931 1.31538 8.95933 1.61308 9.56595 2.22231C10.1726 2.83154 10.469 3.54808 10.469 4.40654C10.469 5.26846 10.1726 5.98154 9.56595 6.59077C8.95933 7.2 8.24586 7.49769 7.39108 7.49769C6.53286 7.49769 5.82284 7.2 5.21622 6.59077C4.6096 5.98154 4.31319 5.265 4.31319 4.40654C4.31319 3.54462 4.6096 2.83154 5.21622 2.22231C5.81939 1.61308 6.53286 1.31538 7.39108 1.31538Z"
            fill="currentColor" />
        <path
            d="M14.965 13.7425C14.9409 13.3917 14.8926 13.0097 14.8202 12.6034C14.7478 12.1936 14.6547 11.8081 14.541 11.4574C14.4238 11.0893 14.2652 10.7246 14.0687 10.3773C13.8618 10.0127 13.6205 9.69321 13.3482 9.43276C13.0621 9.15494 12.7104 8.93268 12.3036 8.77293C11.9003 8.61319 11.4556 8.52984 10.9799 8.52984C10.7696 8.52984 10.5765 8.60971 10.2145 8.84586C10.0077 8.9813 9.76293 9.14105 9.49748 9.31121C9.27685 9.45359 8.97348 9.58903 8.59772 9.71058C8.2323 9.82865 7.86343 9.88769 7.50146 9.88769C7.13949 9.88769 6.76717 9.82865 6.4052 9.71058C6.02944 9.58903 5.72607 9.45359 5.50544 9.31121C5.23654 9.13757 4.99523 8.9813 4.78494 8.84239C4.42297 8.60624 4.22991 8.52637 4.01963 8.52637C3.54389 8.52637 3.09573 8.60624 2.69584 8.76946C2.2925 8.92921 1.94087 9.15494 1.65129 9.42928C1.37895 9.69669 1.13763 10.0127 0.930788 10.3773C0.734288 10.7246 0.57571 11.0893 0.458499 11.4574C0.344736 11.8116 0.251657 12.1971 0.179263 12.6034C0.106868 13.0062 0.0586052 13.3882 0.0344736 13.7425C0.0103421 14.0863 0 14.4405 0 14.8016C0 15.7705 0.306815 16.5554 0.913551 17.1353C1.50994 17.7083 2.29594 18.0001 3.25086 18.0001H11.7486C12.7035 18.0001 13.4895 17.7083 14.0859 17.1388C14.6927 16.5589 14.9995 15.774 14.9995 14.8051C15.0029 14.4405 14.9891 14.0863 14.965 13.7425ZM3.90586 9.85296C3.94378 9.8738 3.99549 9.90505 4.06789 9.95367C4.28852 10.0995 4.53328 10.2593 4.79873 10.426C5.11589 10.6274 5.51923 10.8114 5.99841 10.9677C6.49138 11.1275 6.99815 11.2108 7.49801 11.2108C7.99788 11.2108 8.50464 11.1275 8.99762 10.9677C9.48025 10.8114 9.88359 10.6274 10.2007 10.426C10.4834 10.2454 10.7213 10.0891 10.9281 9.95367C11.004 9.90505 11.0557 9.8738 11.0902 9.85296C11.3556 9.86338 11.6038 9.912 11.821 9.99882C12.0692 10.0961 12.2761 10.228 12.4415 10.3878C12.6208 10.5614 12.7863 10.7767 12.9276 11.0302C13.0793 11.2976 13.2034 11.5789 13.293 11.8602C13.3861 12.1589 13.4688 12.4888 13.5309 12.8395C13.593 13.1972 13.6378 13.5306 13.6585 13.8327V13.8362C13.6791 14.1453 13.6895 14.4717 13.6929 14.8051C13.6929 15.4059 13.5275 15.8574 13.1862 16.1838C12.8345 16.5207 12.3657 16.6839 11.7521 16.6839H3.25086C2.63379 16.6839 2.16494 16.5207 1.81676 16.1838C1.47547 15.8574 1.31 15.4059 1.31 14.8051C1.31 14.4752 1.32034 14.1488 1.34102 13.8362C1.36171 13.5306 1.40652 13.1972 1.46858 12.8395C1.53063 12.4888 1.60992 12.1589 1.70644 11.8602C1.79608 11.5789 1.91673 11.2976 2.07187 11.0302C2.21321 10.7767 2.37868 10.5614 2.55794 10.3878C2.72342 10.228 2.93026 10.0995 3.17847 9.99882C3.39565 9.912 3.64042 9.86338 3.90586 9.85296Z"
            fill="currentColor" />
    </symbol>

    <symbol id="contact" viewBox="0 0 17 16">
        <path
            d="M16.6377 4.40565L14.3946 3.48125V0.491702C14.3946 0.219627 14.1736 0 13.8998 0H3.10016C2.82638 0 2.60537 0.219627 2.60537 0.491702V3.48125L0.362313 4.40565C0.177591 4.48105 0.055542 4.66134 0.055542 4.8613V15.5083C0.055542 15.7804 0.276549 16 0.550334 16H16.4496C16.7234 16 16.9444 15.7804 16.9444 15.5083V4.8613C16.9444 4.66134 16.8224 4.48433 16.6377 4.40565ZM1.04513 6.04138L5.64339 10.5749L1.04513 14.4462V6.04138ZM8.49999 9.46036L15.1005 15.0166H1.89947L8.49999 9.46036ZM11.3566 10.5749L15.9548 6.04138V14.4462L11.3566 10.5749ZM15.5722 5.03176L14.3946 6.19217V4.54661L15.5722 5.03176ZM13.405 0.983405V7.16902L10.5979 9.93895L8.81995 8.44089C8.63523 8.28683 8.36474 8.28683 8.18002 8.44089L6.40207 9.93895L3.59495 7.16902V0.983405H13.405ZM2.60537 6.19217L1.42776 5.03176L2.60537 4.54661V6.19217Z"
            fill="currentColor" />
    </symbol>

    <symbol id="calendar" width="15" height="15" viewBox="0 0 15 15">
        <g clip-path="url(#clip0_13_123)">
            <path
                d="M13.2422 1.17188H12.5391V0H11.3672V1.17188H3.63281V0H2.46094V1.17188H1.75781C0.788555 1.17188 0 1.96043 0 2.92969V13.2422C0 14.2114 0.788555 15 1.75781 15H13.2422C14.2114 15 15 14.2114 15 13.2422V2.92969C15 1.96043 14.2114 1.17188 13.2422 1.17188ZM13.8281 13.2422C13.8281 13.5653 13.5653 13.8281 13.2422 13.8281H1.75781C1.43473 13.8281 1.17188 13.5653 1.17188 13.2422V5.50781H13.8281V13.2422ZM13.8281 4.33594H1.17188V2.92969C1.17188 2.6066 1.43473 2.34375 1.75781 2.34375H2.46094V3.51562H3.63281V2.34375H11.3672V3.51562H12.5391V2.34375H13.2422C13.5653 2.34375 13.8281 2.6066 13.8281 2.92969V4.33594Z"
                fill="currentColor" />
            <path d="M3.39844 6.73828H2.22656V7.91016H3.39844V6.73828Z" fill="currentColor" />
            <path d="M5.74219 6.73828H4.57031V7.91016H5.74219V6.73828Z" fill="currentColor" />
            <path d="M8.08594 6.73828H6.91406V7.91016H8.08594V6.73828Z" fill="currentColor" />
            <path d="M10.4297 6.73828H9.25781V7.91016H10.4297V6.73828Z" fill="currentColor" />
            <path d="M12.7734 6.73828H11.6016V7.91016H12.7734V6.73828Z" fill="currentColor" />
            <path d="M3.39844 9.08203H2.22656V10.2539H3.39844V9.08203Z" fill="currentColor" />
            <path d="M5.74219 9.08203H4.57031V10.2539H5.74219V9.08203Z" fill="currentColor" />
            <path d="M8.08594 9.08203H6.91406V10.2539H8.08594V9.08203Z" fill="currentColor" />
            <path d="M10.4297 9.08203H9.25781V10.2539H10.4297V9.08203Z" fill="currentColor" />
            <path d="M3.39844 11.4258H2.22656V12.5977H3.39844V11.4258Z" fill="currentColor" />
            <path d="M5.74219 11.4258H4.57031V12.5977H5.74219V11.4258Z" fill="currentColor" />
            <path d="M8.08594 11.4258H6.91406V12.5977H8.08594V11.4258Z" fill="currentColor" />
            <path d="M10.4297 11.4258H9.25781V12.5977H10.4297V11.4258Z" fill="currentColor" />
            <path d="M12.7734 9.08203H11.6016V10.2539H12.7734V9.08203Z" fill="currentColor" />
        </g>
        <defs>
            <clipPath id="clip0_13_123">
                <rect width="15" height="15" fill="white" />
            </clipPath>
        </defs>
    </symbol>

    <symbol id="clock" width="15" height="15" viewBox="0 0 15 15">
        <g clip-path="url(#clip0_14_2379)">
            <path
                d="M7.5 0C3.3646 0 0 3.36442 0 7.5C0 11.6356 3.3646 15 7.5 15C11.6356 15 15 11.6356 15 7.5C15 3.36442 11.6354 0 7.5 0ZM7.5 13.9051C3.96826 13.9051 1.09488 11.0317 1.09488 7.5C1.09488 3.96826 3.96826 1.09488 7.5 1.09488C11.0317 1.09488 13.9051 3.96823 13.9051 7.49982C13.9051 11.0317 11.0317 13.9051 7.5 13.9051Z"
                fill="currentColor" />
            <path
                d="M10.0548 7.50009H7.68253V4.21541C7.68253 3.91304 7.43746 3.66797 7.13509 3.66797C6.83272 3.66797 6.58765 3.91304 6.58765 4.21541V8.04753C6.58765 8.3499 6.83272 8.59497 7.13509 8.59497H10.0548C10.3572 8.59497 10.6022 8.3499 10.6022 8.04753C10.6022 7.74516 10.3572 7.50009 10.0548 7.50009Z"
                fill="currentColor" />
        </g>
        <defs>
            <clipPath id="clip0_14_2379">
                <rect width="15" height="15" fill="currentColor" />
            </clipPath>
        </defs>
    </symbol>

    <symbol id="moon" width="18" height="18" viewBox="0 0 18 18">
        <g clip-path="url(#clip0_14_3812)">
            <path
                d="M17.745 10.6416C17.5315 10.4742 17.2376 10.4531 17.0023 10.5884C15.8863 11.2298 14.7068 11.5551 13.4964 11.5551C9.60752 11.5551 6.44375 8.39115 6.44375 4.50213C6.44375 3.28647 6.76949 2.10853 7.41199 1.00118C7.54844 0.766086 7.5282 0.471602 7.36085 0.257287C7.19359 0.0429716 6.91278 -0.0482056 6.65159 0.0272576C4.77291 0.568816 3.082 1.71781 1.8904 3.26249C0.653688 4.86578 0 6.78591 0 8.81543C0 13.879 4.1194 17.9987 9.18289 17.9987C11.2124 17.9987 13.133 17.3452 14.7371 16.1089C16.2828 14.9176 17.4323 13.2276 17.9739 11.3503C18.0492 11.0894 17.9586 10.8092 17.745 10.6416ZM9.18289 16.6669C4.8537 16.6669 1.3317 13.1447 1.3317 8.81543C1.3317 5.89474 3.00299 3.23684 5.54308 1.90105C5.2565 2.74313 5.11205 3.61309 5.11205 4.50213C5.11205 9.12545 8.87331 12.8868 13.4964 12.8868C14.3842 12.8868 15.2557 12.7417 16.1019 12.4542C14.7663 14.9948 12.1061 16.6669 9.18289 16.6669Z"
                fill="currentColor" />
        </g>
        <defs>
            <clipPath id="clip0_14_3812">
                <rect width="18" height="18" fill="currentColor" />
            </clipPath>
        </defs>
    </symbol>

    <symbol id="menu" width="18" height="15" viewBox="0 0 18 15">
        <g clip-path="url(#clip0_14_3812)">
            <path d="M0 3H18V0H0V3ZM0 9H18V6H0V9ZM0 15H18V12H0V15Z" fill="currentColor" />
        </g>
        <defs>
            <clipPath id="clip0_14_3812">
                <rect width="18" height="15" fill="currentColor" />
            </clipPath>
        </defs>
    </symbol>
</svg>
